<svg width="931" height="570" viewBox="0 0 931 570" fill="none" xmlns="http://www.w3.org/2000/svg">
<path d="M1 569L111.095 397.235C113.087 394.127 117.645 394.176 119.57 397.325L144.467 438.044C146.249 440.958 150.364 441.267 152.561 438.652L171.883 415.652C173.849 413.311 177.437 413.268 179.46 415.56L190.933 428.561C193.156 431.08 197.18 430.734 198.941 427.873L255.176 336.46C257.032 333.443 261.351 333.259 263.456 336.108L289.302 371.085C291.341 373.844 295.49 373.777 297.439 370.952L387.676 240.138C389.748 237.134 394.236 237.29 396.095 240.43L450.841 332.922C452.407 335.568 455.968 336.187 458.335 334.224L513.339 288.622C515.471 286.854 518.633 287.156 520.392 289.296L543.971 317.977C546.044 320.498 549.936 320.39 551.866 317.759L602.069 249.289C602.736 248.379 603.691 247.722 604.779 247.423L653.438 234.079C654.33 233.834 655.137 233.347 655.769 232.672L709.64 175.049C712.099 172.42 716.447 173.172 717.88 176.474L749.615 249.616C751.179 253.219 756.095 253.696 758.321 250.461L930 1" stroke="url(#paint0_linear_555_293)" stroke-width="2"/>
<defs>
<linearGradient id="paint0_linear_555_293" x1="940.007" y1="1.83409" x2="19.2673" y2="553.855" gradientUnits="userSpaceOnUse">
<stop stop-color="#4AFF6C"/>
<stop offset="1" stop-color="#757575" stop-opacity="0"/>
</linearGradient>
</defs>
</svg>
