<svg width="6033" height="3016" viewBox="0 0 6033 3016" fill="none" xmlns="http://www.w3.org/2000/svg">
<path d="M4179.16 1261.99V1615.41C4179.16 1615.41 4179.16 1759.6 4008.01 1761.01H3729.53C3729.53 1761.01 3691.82 1759.6 3675.86 1731.33L3626.55 1654.99H3941.29C3941.29 1654.99 4010.91 1653.58 4010.91 1601.27V1261.99H4179.16ZM3320.51 1261.99L3636.7 1761.01H3439.44L3385.78 1670.54H3095.7L3142.11 1594.2C3142.11 1594.2 3159.51 1564.52 3195.77 1564.52H3323.41L3211.73 1380.74L2986.91 1761.01H2789.66L3105.85 1261.99H3320.51ZM4694.05 1261.99L5007.34 1761.01H4812.99L4757.87 1670.54H4466.34L4514.2 1594.2C4514.2 1594.2 4533.06 1564.52 4569.32 1564.52H4696.96L4585.27 1380.74L4357.56 1761.01H4160.3L4476.49 1261.99H4694.05ZM5549.8 1261.99V1615.41C5549.8 1615.41 5548.35 1759.6 5381.55 1761.01H5100.17C5100.17 1761.01 5061.01 1759.6 5045.05 1731.33L4997.19 1654.99H5313.38C5313.38 1654.99 5384.45 1653.58 5384.45 1601.27V1261.99H5549.8ZM2103.61 1261.97V1761H2271.85V1363.78H2561.94C2621.41 1363.78 2621.42 1406.18 2621.42 1406.18C2621.42 1445.76 2561.94 1445.77 2561.94 1445.77H2374.83C2340.02 1445.77 2321.17 1472.63 2321.17 1472.63L2271.85 1548.96H2559.05C2621.42 1548.96 2621.42 1601.27 2621.42 1601.27C2621.42 1653.57 2559.05 1655 2559.05 1655H2374.83C2340.02 1653.59 2321.17 1683.25 2321.17 1683.25L2271.85 1761H2561.94C2808.51 1759.59 2808.53 1625.32 2808.53 1625.32C2808.53 1537.67 2692.49 1506.56 2692.49 1506.56C2808.53 1478.28 2808.53 1390.65 2808.53 1390.65C2808.53 1260.59 2561.94 1261.97 2561.94 1261.97H2103.61ZM498 1226.65L901.215 1409.01C901.215 1409.01 956.331 1383.57 1010 1359.53C1010 1359.53 1020.15 1353.88 1020.15 1342.57C1020.15 1342.57 1020.15 1329.85 1007.1 1324.19C1007.1 1324.19 825.795 1242.2 644.493 1161.62L969.385 1016.02L996.944 1010.36L1023.05 1016.02L1510.39 1235.13C1510.39 1235.13 1559.7 1257.75 1559.7 1287.44C1559.7 1287.44 1559.7 1317.12 1510.39 1338.33L1128.93 1509.38L1510.39 1680.44C1510.39 1680.44 1559.7 1701.64 1559.7 1734.15C1559.7 1734.15 1559.7 1762.43 1510.39 1786.46L1023.05 2002.75C1023.05 2002.75 1012.9 2011.23 996.944 2011.23L969.385 2002.75L644.493 1858.56L1007.1 1697.4L1020.15 1679.02C1020.15 1679.02 1020.15 1670.54 1010 1660.64L901.217 1612.58L498 1794.94V1588.55L673.501 1509.38L498 1433.05V1226.65Z" fill="#0060AB"/>
</svg>
