<svg width="419" height="134" viewBox="0 0 419 134" fill="none" xmlns="http://www.w3.org/2000/svg">
<path d="M412.381 69.4619C404.837 78.0821 387.192 88.072 374.369 88.072C369.571 88.072 368.06 86.3952 368.06 84.7539C368.06 77.9758 387.396 69.3202 387.396 56.7206C387.396 50.0016 383.341 45.29 378.267 41.3696C382.826 34.745 385.045 27.7662 385.045 22.476C385.045 11.9665 376.648 4.04302 365.469 4.04302C360.377 4.11026 355.514 6.13113 351.914 9.67538C348.314 13.2196 346.261 18.0073 346.192 23.0192C346.192 32.7966 353.45 39.9053 361.042 44.7232C345.005 64.0536 316.049 87.6824 295.321 87.6824C287.92 87.6824 279.092 85.7694 279.092 76.6414C279.163 74.1648 279.751 71.729 280.819 69.4855C288.382 73.1049 296.665 75.0324 305.073 75.13C322.598 75.13 331.93 62.365 331.93 53.1544C331.93 42.3733 323.534 34.8513 311.539 34.8513C299.052 34.8513 285.509 42.8102 276.645 53.3788C273.802 51.5839 270.995 49.6355 268.188 47.5808C280.004 38.264 292.179 29.9862 304.006 25.251L299.364 14.033C277.305 22.8539 255.306 41.9482 235.898 58.7871C220.7 71.9771 207.685 87.458 201.676 87.458C201.676 82.0497 218.289 64.526 218.289 54.3116C218.289 49.9307 215.278 45.5025 208.537 45.5025C194.958 45.5025 158.289 87.6824 144.255 87.6824C143.343 87.6824 142.432 87.3045 142.432 86.6196C142.432 77.0902 149.005 65.5179 161.408 52.9064L161.984 52.316L163.003 51.3123L154.307 42.7393C152.004 45.0066 149.605 47.4627 147.254 50.2377C140.057 58.2203 133.376 65.3998 123.408 65.3998C120.159 65.1646 117.099 63.8051 114.771 61.562C124.583 53.5441 130.797 44.6759 130.797 36.0912C130.797 22.8185 119.401 14.1511 99.8133 11.9429L103.088 5.61355L92.1484 0.0517578L86.1509 11.4942C64.1758 12.5333 33.7563 23.9049 19.3142 31.7102L25.2398 42.3379C37.1749 35.8786 60.9372 26.9869 79.4096 24.3181L56.3071 68.4818C42.8126 57.8542 33.1445 49.8008 20.8496 49.8008C9.5022 49.8008 0.937698 57.7361 0.937698 68.2692C0.937698 75.0237 4.3563 80.987 10.5338 85.0491C16.1235 88.7215 23.7284 90.6581 32.4248 90.6581C36.6482 90.6443 40.8666 90.3722 45.0557 89.8433L35.0997 108.808L46.0393 114.381L60.4334 87.0565C87.8062 107.686 129.357 133.948 196.278 133.948C218.15 133.743 239.851 130.124 260.572 123.226L255.929 111.972C236.678 118.304 216.538 121.627 196.242 121.821C138.533 121.821 101.589 101.746 75.0914 82.7346C85.4414 79.197 95.3554 74.527 104.647 68.8124C109.877 74.2207 116.726 77.5271 123.432 77.5271C126.291 77.5111 129.129 77.0283 131.828 76.0983C130.734 79.6199 130.164 83.2793 130.137 86.962C130.137 94.6493 135.643 99.8097 143.835 99.8097C165.978 99.8097 196.734 60.9126 203.415 60.2159C198.953 65.6005 189.261 81.0814 189.261 88.5562C189.261 96.8221 194.91 99.786 199.744 99.786C212.939 99.786 223.495 85.6985 244.042 67.9032C248.708 63.8529 253.53 59.6373 258.436 55.5515C262.191 58.3501 266.041 61.0897 270.012 63.5931C267.999 67.6715 266.91 72.1317 266.821 76.6651C266.821 90.9415 277.748 99.8214 295.357 99.8214C318.82 99.8214 352.55 74.8938 371.262 51.2651C373.769 53.178 375.113 54.8076 375.113 56.3073C375.113 63.6403 355.789 70.7372 355.789 85.1199C355.789 92.205 360.791 99.8214 374.825 99.8214C389.531 99.8214 408.135 90.3747 418.607 80.5855L412.381 69.4619ZM311.503 47.0258C313.41 47.0258 319.623 47.4745 319.623 53.2135C319.623 56.5434 315.233 63.0735 305.073 63.0735C299.122 62.988 293.25 61.7146 287.812 59.3302C294.206 52.4577 303.214 46.9904 311.503 46.9904V47.0258ZM118.454 36.1148C118.454 47.2148 95.3271 63.6167 68.0742 72.4258L93.6958 23.6215C106.315 24.2591 118.454 27.778 118.454 36.1148ZM13.1967 68.2692C13.1967 65.1991 15.5957 61.9163 20.8016 61.9163C28.8623 61.9163 36.6591 68.4464 47.7665 77.2673C42.6851 78.0726 37.5477 78.4871 32.4008 78.5072C21.1014 78.5308 13.1967 74.3152 13.1967 68.2692ZM368.179 34.9576C362.65 31.8401 358.451 27.5182 358.451 23.0428C358.509 21.2411 359.261 19.5285 360.556 18.2538C361.851 16.9792 363.59 16.2383 365.421 16.1821C367.321 16.1663 369.151 16.8913 370.511 18.1987C371.87 19.5062 372.649 21.2901 372.678 23.1609C372.726 25.6407 371.658 29.7737 368.179 34.9576Z" fill="#007DB6"/>
<path d="M182.735 38.205C183.835 37.3117 184.739 36.2075 185.391 34.9594C186.044 33.7114 186.432 32.3456 186.531 30.9454C186.63 29.5451 186.439 28.1396 185.968 26.8145C185.498 25.4893 184.759 24.2722 183.796 23.2373C182.833 22.2024 181.665 21.3713 180.365 20.7946C179.065 20.218 177.66 19.9078 176.234 19.883C174.809 19.8581 173.393 20.1192 172.073 20.6503C170.753 21.1814 169.557 21.9713 168.557 22.9721C161.204 29.6438 164.263 40.9327 164.263 40.9327C164.263 40.9327 175.382 44.865 182.735 38.205Z" fill="#007DB6"/>
</svg>