<svg width="6033" height="3016" viewBox="0 0 6033 3016" fill="none" xmlns="http://www.w3.org/2000/svg">
<path fill-rule="evenodd" clip-rule="evenodd" d="M1663.81 1241.42L1783.47 1238.9L1918.12 1239.76C2110.96 1239.76 2174.97 1285.78 2174.97 1486.55V1513.31C2174.97 1724.96 2162.49 1796.91 1913.15 1805.27L1785.97 1807.79C1768.51 1808.62 1750.23 1808.62 1732.79 1808.62C1694.55 1808.62 1656.33 1806.96 1618.1 1804.49C1495.91 1795.25 1422.77 1753.46 1416.94 1618.76C1415.29 1584.44 1415.29 1550.15 1415.29 1515.83C1415.26 1296.64 1441.03 1244.77 1663.81 1241.42ZM2405.1 1663.04H2751.47V1802.75H2236.38V1244.77H2405.1V1663.04ZM4517.92 1802.75H4349.2V1244.77H4517.92V1802.75ZM4694.52 1245.35C4600.27 1245.35 4554.17 1322.27 4554.17 1417.14C4554.17 1512 4600.3 1591.11 4694.52 1591.11L5043.07 1590.43C5063.36 1590.43 5079.77 1607 5079.77 1627.42C5079.77 1647.84 5063.36 1664.4 5043.07 1664.4H4570.05V1802.78L5118.82 1803.03C5215.22 1803.03 5258.69 1724.4 5258.69 1627.42C5258.69 1530.38 5215.22 1451.78 5118.82 1451.78L4772.47 1451.8C4753.46 1451.8 4738.02 1436.3 4738.02 1417.14C4738.02 1398 4753.46 1384.63 4772.47 1384.63H5234.66V1245L4694.52 1245.35ZM5306.4 1228.45C5331.91 1228.45 5350.47 1248.52 5350.47 1274.18C5350.47 1300.11 5331.91 1320.2 5306.4 1320.2C5280.76 1320.2 5262.1 1300.11 5262.1 1274.18C5262.1 1248.52 5280.76 1228.45 5306.4 1228.45V1221.48C5292.47 1221.45 5279.11 1226.98 5269.23 1236.86C5259.36 1246.74 5253.79 1260.16 5253.74 1274.18C5253.74 1303.46 5277.28 1327.15 5306.4 1327.15C5313.29 1327.14 5320.12 1325.76 5326.49 1323.09C5332.85 1320.42 5338.64 1316.52 5343.5 1311.6C5348.37 1306.68 5352.22 1300.84 5354.84 1294.42C5357.46 1288 5358.8 1281.12 5358.78 1274.18C5358.76 1260.2 5353.24 1246.8 5343.42 1236.92C5333.6 1227.04 5320.28 1221.49 5306.4 1221.48V1228.45Z" fill="black"/>
<path fill-rule="evenodd" clip-rule="evenodd" d="M5294.09 1256.78H5310.8C5318.03 1256.78 5325.51 1257.88 5325.51 1267.1C5325.51 1279.08 5313.35 1277.67 5305.05 1277.67H5294.09V1283.41H5307.22L5323.98 1310.61H5332.59L5314.85 1283.41C5325.26 1283.14 5333.26 1278.81 5333.26 1267.23C5333.26 1257.46 5327.99 1251.62 5312.5 1251.62H5286.86V1310.61H5294.09V1256.78ZM3751.17 1387.12H4032.07C4047.91 1387.12 4065.34 1387.95 4080.3 1392.13C4111.87 1401.35 4112.75 1423.93 4113.57 1453.21C4113.57 1515.12 4106.87 1531.01 4027.92 1531.01H3751.17V1666.54H4032.93C4103.57 1666.54 4106.12 1695.02 4106.12 1756.1V1809.6H4277.31V1702.55C4277.31 1625.58 4234.92 1604.63 4164.25 1595.44C4199.17 1583.73 4239.09 1576.2 4260.68 1542.72C4281.44 1509.26 4283.94 1466.61 4283.94 1428.13C4283.94 1293.43 4229.09 1251.62 4098.59 1251.62H3582.47V1809.6H3751.17V1387.12ZM3353.54 1670.19V1809.6H3522.39V1426.15C3522.39 1293.26 3403.32 1251.84 3338.41 1251.84H2987.71C2922.77 1251.84 2803.73 1293.26 2803.73 1426.15V1809.6H2972.57V1471.92C2972.57 1417.46 3031.03 1391.3 3063.48 1391.3H3262.61C3295.11 1391.3 3353.54 1417.46 3353.54 1471.92V1530.73H2972.57V1670.19H3353.54ZM847.668 1387.12H1090.38C1151.89 1387.12 1180.13 1397.17 1180.13 1463.23C1180.13 1524.31 1151.04 1535.16 1092.86 1535.16H847.668V1670.7H1154.37C1324.76 1670.7 1350.53 1601.26 1350.53 1457.39C1350.53 1287.54 1287.37 1251.59 1127.78 1251.59H678.922V1809.57H847.668V1387.12Z" fill="black"/>
</svg>
