<svg width="2073" height="944" viewBox="0 0 2073 944" fill="none" xmlns="http://www.w3.org/2000/svg">
<path d="M2073 914C2073 930.569 2059.57 944 2043 944H30C13.4314 944 0 930.569 0 914V30C0 13.4314 13.4315 0 30 0H2043C2059.57 0 2073 13.4315 2073 30V914Z" fill="#13409C"/>
<g clip-path="url(#paint0_diamond_889_488_clip_path)" data-figma-skip-parse="true"><g transform="matrix(1.92 0.523098 -0.101833 0.591 69 -2.59096e-05)"><rect x="0" y="0" width="1078.45" height="1558.11" fill="url(#paint0_diamond_889_488)" opacity="1" shape-rendering="crispEdges"/><rect x="0" y="0" width="1078.45" height="1558.11" transform="scale(1 -1)" fill="url(#paint0_diamond_889_488)" opacity="1" shape-rendering="crispEdges"/><rect x="0" y="0" width="1078.45" height="1558.11" transform="scale(-1 1)" fill="url(#paint0_diamond_889_488)" opacity="1" shape-rendering="crispEdges"/><rect x="0" y="0" width="1078.45" height="1558.11" transform="scale(-1)" fill="url(#paint0_diamond_889_488)" opacity="1" shape-rendering="crispEdges"/></g></g><path d="M2073 914C2073 930.569 2059.57 944 2043 944H30C13.4314 944 0 930.569 0 914V30C0 13.4314 13.4315 0 30 0H2043C2059.57 0 2073 13.4315 2073 30V914Z" data-figma-gradient-fill="{&#34;type&#34;:&#34;GRADIENT_DIAMOND&#34;,&#34;stops&#34;:[{&#34;color&#34;:{&#34;r&#34;:0.29673826694488525,&#34;g&#34;:0.52773666381835938,&#34;b&#34;:1.0,&#34;a&#34;:1.0},&#34;position&#34;:0.0},{&#34;color&#34;:{&#34;r&#34;:0.074509806931018829,&#34;g&#34;:0.25098040699958801,&#34;b&#34;:0.61176472902297974,&#34;a&#34;:1.0},&#34;position&#34;:1.0}],&#34;stopsVar&#34;:[{&#34;color&#34;:{&#34;r&#34;:0.29673826694488525,&#34;g&#34;:0.52773666381835938,&#34;b&#34;:1.0,&#34;a&#34;:1.0},&#34;position&#34;:0.0},{&#34;color&#34;:{&#34;r&#34;:0.074509806931018829,&#34;g&#34;:0.25098040699958801,&#34;b&#34;:0.61176472902297974,&#34;a&#34;:1.0},&#34;position&#34;:1.0}],&#34;transform&#34;:{&#34;m00&#34;:3840.0002441406250,&#34;m01&#34;:-203.66668701171875,&#34;m02&#34;:-1749.1667480468750,&#34;m10&#34;:1046.1959228515625,&#34;m11&#34;:1182.0001220703125,&#34;m12&#34;:-1114.0980224609375},&#34;opacity&#34;:1.0,&#34;blendMode&#34;:&#34;NORMAL&#34;,&#34;visible&#34;:true}"/>
<defs>
<clipPath id="paint0_diamond_889_488_clip_path"><path d="M2073 914C2073 930.569 2059.57 944 2043 944H30C13.4314 944 0 930.569 0 914V30C0 13.4314 13.4315 0 30 0H2043C2059.57 0 2073 13.4315 2073 30V914Z"/></clipPath><linearGradient id="paint0_diamond_889_488" x1="0" y1="0" x2="500" y2="500" gradientUnits="userSpaceOnUse">
<stop stop-color="#4C87FF"/>
<stop offset="1" stop-color="#13409C"/>
</linearGradient>
</defs>
</svg>
