<svg xmlns="http://www.w3.org/2000/svg" id="Layer_1" viewBox="46.39 87.77 756.43 73.09">
  <defs>
    <style>
      .cls-1 {
        fill: #ed1c24;
      }

      .cls-2 {
        fill: #7d7e81;
      }

      .cls-3 {
        fill: #230000;
      }
    </style>
  </defs>
  <path class="cls-2" d="M802.82,158.35h-2.17v2.17h2.17v-2.17ZM788.94,148.9h1.52c1.26,0,2.2.1,2.83.29.63.2,1.17.56,1.62,1.09.74.87,1.11,2.07,1.11,3.6,0,1.63-.38,2.92-1.13,3.89-.7.91-1.9,1.36-3.58,1.36h-2.36v-10.24ZM791.45,160.51c2.07,0,3.68-.59,4.82-1.78,1.14-1.19,1.71-2.86,1.71-5.02,0-1.78-.46-3.21-1.38-4.3-.58-.68-1.27-1.17-2.06-1.46-.79-.29-1.83-.43-3.12-.43h-4.32v12.99h4.35ZM785.22,160.51l-5.08-12.99h-1.83l-5.15,12.99h1.71l1.43-3.6h5.51l1.41,3.6h1.99ZM776.84,155.54l2.22-5.6,2.21,5.6h-4.43ZM772.59,160.51v-1.38h-5.8v-4.71h4.54v-1.36h-4.54v-4.17h5.42v-1.38h-7.26v12.99h7.64ZM753.58,160.51v-6.14h6.18v6.14h1.84v-12.99h-1.84v5.48h-6.18v-5.48h-1.84v12.99h1.84ZM749.85,160.51l-5.08-12.99h-1.83l-5.15,12.99h1.71l1.43-3.6h5.51l1.41,3.6h1.99ZM741.48,155.54l2.22-5.6,2.21,5.6h-4.43ZM727.08,160.51v-5.46l4.65-7.53h-1.71l-3.63,5.87-3.37-5.87h-2.11l4.34,7.57v5.43h1.84ZM720.55,160.51l-5.08-12.99h-1.83l-5.15,12.99h1.71l1.43-3.6h5.51l1.41,3.6h1.99ZM712.18,155.54l2.22-5.6,2.21,5.6h-4.43ZM703.59,160.51v-11.62h4.61v-1.38h-11.06v1.38h4.61v11.62h1.84ZM694.83,159.81c.83-.68,1.25-1.59,1.25-2.72,0-.8-.22-1.48-.67-2.05-.45-.57-1.23-1.17-2.35-1.81l-.93-.53c-.81-.46-1.36-.86-1.67-1.19-.3-.33-.46-.72-.46-1.15,0-.51.21-.94.62-1.28.42-.34.94-.51,1.58-.51.67,0,1.7.27,3.06.81v-1.69c-1.11-.33-2.17-.5-3.17-.5-1.12,0-2.05.32-2.77.97s-1.09,1.47-1.09,2.47c0,.74.23,1.4.68,1.95.45.56,1.23,1.15,2.34,1.79l.89.52c.78.44,1.31.84,1.6,1.2.29.36.43.79.43,1.3,0,.62-.22,1.12-.66,1.5-.44.38-1.03.57-1.75.57-.94,0-2.15-.34-3.61-1.02v1.83c1.36.38,2.47.57,3.34.57,1.38,0,2.48-.34,3.32-1.03M679.84,158.35h-2.17v2.17h2.17v-2.17ZM665.96,148.9h1.52c1.26,0,2.2.1,2.83.29.63.2,1.16.56,1.62,1.09.74.87,1.11,2.07,1.11,3.6,0,1.63-.38,2.92-1.13,3.89-.7.91-1.9,1.36-3.58,1.36h-2.36v-10.24ZM668.47,160.51c2.07,0,3.68-.59,4.82-1.78,1.14-1.19,1.71-2.86,1.71-5.02,0-1.78-.46-3.21-1.38-4.3-.58-.68-1.27-1.17-2.06-1.46-.79-.29-1.83-.43-3.12-.43h-4.32v12.99h4.35ZM652.41,160.51v-10.04l6.55,10.04h1.8v-12.99h-1.58v10.04l-6.54-10.04h-1.81v12.99h1.58ZM639.14,158c-.72-.97-1.08-2.31-1.08-4s.36-3.03,1.09-3.99c.73-.96,1.74-1.44,3.03-1.44s2.3.48,3.03,1.43c.73.95,1.09,2.28,1.09,3.97s-.36,3.1-1.09,4.05c-.73.96-1.75,1.43-3.08,1.43s-2.27-.48-2.98-1.46M646.59,158.99c1.11-1.23,1.66-2.9,1.66-5s-.55-3.71-1.66-4.94c-1.11-1.24-2.58-1.85-4.42-1.85s-3.32.62-4.42,1.86c-1.1,1.24-1.66,2.89-1.66,4.96s.55,3.71,1.65,4.96c1.1,1.25,2.55,1.88,4.35,1.88,1.89,0,3.39-.62,4.5-1.85M630.31,160.51v-5.46l4.65-7.53h-1.71l-3.64,5.87-3.37-5.87h-2.11l4.34,7.57v5.43h1.84ZM623.55,160.51v-1.38h-5.8v-4.71h4.54v-1.36h-4.54v-4.17h5.42v-1.38h-7.26v12.99h7.64ZM607.4,148.9h.72c1.98,0,2.97.64,2.97,1.91,0,.77-.27,1.36-.81,1.78-.54.42-1.3.63-2.29.63h-.59v-4.33ZM607.4,154.39h.52c1.04,0,1.9.26,2.59.77.69.51,1.04,1.15,1.04,1.93,0,.87-.38,1.47-1.14,1.79-.4.17-1.27.25-2.62.25h-.38v-4.74ZM609.4,160.51c1.32,0,2.34-.28,3.04-.83.7-.56,1.05-1.36,1.05-2.42,0-1.7-1.06-2.87-3.19-3.52,1.78-.67,2.67-1.79,2.67-3.36,0-.92-.35-1.63-1.04-2.12-.69-.49-1.69-.74-2.99-.74h-3.37v12.99h3.83ZM589.87,160.51v-6.58l5.68,6.58h2.34l-6-6.8,5.09-6.2h-1.85l-5.26,6.39v-6.39h-1.73v12.99h1.73ZM576.44,160.51v-10.04l6.55,10.04h1.8v-12.99h-1.58v10.04l-6.54-10.04h-1.81v12.99h1.58ZM571.51,147.52h-1.84v12.99h1.84v-12.99ZM558.3,160.51v-6.14h6.18v6.14h1.84v-12.99h-1.84v5.48h-6.18v-5.48h-1.84v12.99h1.84ZM550.02,160.51v-11.62h4.61v-1.38h-11.06v1.38h4.61v11.62h1.84Z"/>
  <path class="cls-1" d="M46.39,113.71v-.14c0-14.25,11.48-25.8,26.78-25.8s26.65,11.41,26.65,25.65v.14c0,14.24-11.48,25.8-26.79,25.8-15.31,0-26.64-11.41-26.64-25.65M106.35,116.61v-27.85h13.89v27.57c0,7.16,3.61,10.56,9.14,10.56s9.21-3.26,9.21-10.2v-27.92h13.89v27.5c0,15.95-9.14,23.03-23.25,23.03s-22.89-7.16-22.89-22.68M172.76,100.81h-14.81v-12.05h43.44v12.05h-14.88v37.56h-13.75v-37.56ZM207.41,88.76h13.75v37.56h24.03v12.05h-37.77v-49.61ZM249.51,113.71v-.14c0-14.25,11.48-25.8,26.78-25.8s26.65,11.41,26.65,25.65v.14c0,14.24-11.48,25.8-26.79,25.8-15.31,0-26.64-11.41-26.64-25.65M288.84,113.71v-.14c0-7.23-5.1-13.39-12.69-13.39s-12.61,6.09-12.61,13.25v.14c0,7.16,5.17,13.39,12.75,13.39,7.51,0,12.54-6.09,12.54-13.25M308.41,113.71v-.14c0-14.25,11.48-25.8,26.79-25.8s26.64,11.41,26.64,25.65v.14c0,14.24-11.48,25.8-26.79,25.8-15.31,0-26.65-11.41-26.65-25.65M347.74,113.71v-.14c0-7.23-5.1-13.39-12.69-13.39s-12.61,6.09-12.61,13.25v.14c0,7.16,5.17,13.39,12.76,13.39,7.51,0,12.54-6.09,12.54-13.25M368.93,88.76h13.75v20.13l17.15-20.13h16.23l-18.78,21.26,19.42,28.35h-16.44l-12.55-18.42-5.03,5.53v12.9h-13.75v-49.61ZM85.72,113.71v-.14c0-7.23-5.1-13.39-12.69-13.39s-12.61,6.09-12.61,13.25v.14c0,7.16,5.17,13.39,12.75,13.39,7.51,0,12.55-6.09,12.55-13.25"/>
  <path class="cls-3" d="M440.3,88.76h25.44c6.24,0,10.63,1.56,13.54,4.4,1.98,2.05,3.19,4.68,3.19,8.08v.14c0,5.74-3.26,9.14-7.65,11.05,6.02,1.99,9.85,5.39,9.85,12.12v.14c0,8.5-6.95,13.68-18.78,13.68h-25.58v-49.61ZM468.93,104.07c0-2.76-2.2-4.25-6.24-4.25h-9v8.71h8.64c4.18,0,6.59-1.42,6.59-4.32v-.14ZM490.41,116.61v-27.85h13.89v27.57c0,7.16,3.61,10.56,9.14,10.56s9.21-3.26,9.21-10.2v-27.92h13.89v27.5c0,15.95-9.14,23.03-23.24,23.03s-22.89-7.16-22.89-22.68M540.95,131l7.65-9.14c4.96,3.9,10.35,5.95,16.09,5.95,3.76,0,5.74-1.28,5.74-3.4v-.14c0-2.13-1.63-3.19-8.44-4.82-10.56-2.41-18.71-5.38-18.71-15.52v-.14c0-9.21,7.3-15.87,19.2-15.87,8.43,0,15.02,2.26,20.41,6.59l-6.87,9.71c-4.54-3.26-9.5-4.89-13.89-4.89-3.33,0-4.96,1.35-4.96,3.19v.14c0,2.27,1.7,3.26,8.65,4.82,11.34,2.48,18.43,6.17,18.43,15.45v.14c0,10.13-8.01,16.16-20.06,16.16-8.79,0-17.08-2.76-23.24-8.22M591.27,88.76h13.75v49.61h-13.75v-49.61ZM614.08,88.76h12.83l20.41,26.22v-26.22h13.6v49.61h-11.98l-21.26-27.21v27.21h-13.61v-49.61ZM669.72,88.76h39.9v11.62h-26.29v7.58h23.81v10.84h-23.81v7.87h26.65v11.69h-40.25v-49.61ZM713.31,131l7.66-9.14c4.96,3.9,10.34,5.95,16.09,5.95,3.76,0,5.74-1.28,5.74-3.4v-.14c0-2.13-1.63-3.19-8.44-4.82-10.56-2.41-18.71-5.38-18.71-15.52v-.14c0-9.21,7.3-15.87,19.21-15.87,8.43,0,15.02,2.26,20.41,6.59l-6.88,9.71c-4.53-3.26-9.5-4.89-13.89-4.89-3.33,0-4.96,1.35-4.96,3.19v.14c0,2.27,1.7,3.26,8.64,4.82,11.34,2.48,18.42,6.17,18.42,15.45v.14c0,10.13-8.01,16.16-20.05,16.16-8.79,0-17.08-2.76-23.24-8.22M759.52,131l7.65-9.14c4.96,3.9,10.34,5.95,16.09,5.95,3.76,0,5.74-1.28,5.74-3.4v-.14c0-2.13-1.63-3.19-8.43-4.82-10.56-2.41-18.71-5.38-18.71-15.52v-.14c0-9.21,7.3-15.87,19.2-15.87,8.43,0,15.02,2.26,20.41,6.59l-6.88,9.71c-4.53-3.26-9.5-4.89-13.89-4.89-3.33,0-4.96,1.35-4.96,3.19v.14c0,2.27,1.7,3.26,8.65,4.82,11.34,2.48,18.43,6.17,18.43,15.45v.14c0,10.13-8.01,16.16-20.05,16.16-8.79,0-17.08-2.76-23.24-8.22M464.19,118.17h-10.49v9.14h10.63c4.25,0,6.59-1.63,6.59-4.54v-.14c0-2.69-2.13-4.46-6.73-4.47"/>
</svg>